HIERARCHY
ROOT root
{
	OFFSET	0	13.1	24.9
	CHANNELS 6  Xposition Yposition Zposition Xrotation Yrotation Zrotation
	JOINT spine_1
	{
		OFFSET	0	9.99999	0
		CHANNELS 3  Xrotation Yrotation Zrotation
		JOINT spine_2
		{
			OFFSET	0	112	-10
			CHANNELS 3  Xrotation Yrotation Zrotation
			JOINT spine_3
			{
				OFFSET	0	206.5	19.3
				CHANNELS 3  Xrotation Yrotation Zrotation
				JOINT spine_4
				{
					OFFSET	0	110.4	14.6
					CHANNELS 3  Xrotation Yrotation Zrotation
					JOINT neck_1
					{
						OFFSET	0	71.8	-50.3
						CHANNELS 3  Xrotation Yrotation Zrotation
						JOINT neck_2
						{
							OFFSET	0	86.2	-25.8
							CHANNELS 3  Xrotation Yrotation Zrotation
							JOINT head_ee
							{
								OFFSET	0	179.8	-8.7
								CHANNELS 3  Xrotation Yrotation Zrotation
								End Site
								{
									OFFSET	1	0	0
								}
							}
						}
					}
					JOINT left_clavicle
					{
						OFFSET	-43.2	22.4	-70.8
						CHANNELS 3  Xrotation Yrotation Zrotation
						JOINT left_shoulder
						{
							OFFSET	-93.9	-5.79999	48.7
							CHANNELS 3  Xrotation Yrotation Zrotation
							JOINT left_elbow
							{
								OFFSET	-291.4	-30.8	15.2
								CHANNELS 3  Xrotation Yrotation Zrotation
								JOINT left_lowarm_twist
								{
									OFFSET	-110.7	-3.89999	13.6
									CHANNELS 3  Xrotation Yrotation Zrotation
									JOINT left_hand
									{
										OFFSET	-110.7	-3.89999	13.6
										CHANNELS 3  Xrotation Yrotation Zrotation
										JOINT left_ee
										{
											OFFSET	-80.8	-5.10001	12.1
											CHANNELS 3  Xrotation Yrotation Zrotation
											End Site
											{
												OFFSET	1	0	0
											}
										}
									}
								}
							}
						}
					}
					JOINT right_clavicle
					{
						OFFSET	43.2	22.4	-70.8
						CHANNELS 3  Xrotation Yrotation Zrotation
						JOINT right_shoulder
						{
							OFFSET	93.9	-5.79999	48.7
							CHANNELS 3  Xrotation Yrotation Zrotation
							JOINT right_elbow
							{
								OFFSET	291.4	-30.8	15.2
								CHANNELS 3  Xrotation Yrotation Zrotation
								JOINT right_lowarm_twist
								{
									OFFSET	110.7	-3.89999	13.6
									CHANNELS 3  Xrotation Yrotation Zrotation
									JOINT right_hand
									{
										OFFSET	110.7	-3.89999	13.6
										CHANNELS 3  Xrotation Yrotation Zrotation
										JOINT right_ee
										{
											OFFSET	80.8	-5.10001	12.1
											CHANNELS 3  Xrotation Yrotation Zrotation
											End Site
											{
												OFFSET	1	0	0
											}
										}
									}
								}
							}
						}
					}
				}
			}
		}
	}
	JOINT left_hip
	{
		OFFSET	-82.8	-127.5	0.300001
		CHANNELS 3  Xrotation Yrotation Zrotation
		JOINT left_knee
		{
			OFFSET	-28.2	-396.7	2.2
			CHANNELS 3  Xrotation Yrotation Zrotation
			JOINT left_ankle
			{
				OFFSET	-11.7	-411.3	35.4
				CHANNELS 3  Xrotation Yrotation Zrotation
				JOINT left_toes
				{
					OFFSET	0	-60	-88.6
					CHANNELS 3  Xrotation Yrotation Zrotation
					JOINT left_foot_ee
					{
						OFFSET	-22.5	-16.5	-42.2
						CHANNELS 3  Xrotation Yrotation Zrotation
						End Site
						{
							OFFSET	1	0	0
						}
					}
				}
			}
		}
	}
	JOINT right_hip
	{
		OFFSET	82.8	-127.5	0.300001
		CHANNELS 3  Xrotation Yrotation Zrotation
		JOINT right_knee
		{
			OFFSET	28.2	-396.7	2.2
			CHANNELS 3  Xrotation Yrotation Zrotation
			JOINT right_ankle
			{
				OFFSET	11.7	-411.3	35.4
				CHANNELS 3  Xrotation Yrotation Zrotation
				JOINT right_toes
				{
					OFFSET	0	-60	-88.6
					CHANNELS 3  Xrotation Yrotation Zrotation
					JOINT right_foot_ee
					{
						OFFSET	22.5	-16.5	-42.2
						CHANNELS 3  Xrotation Yrotation Zrotation
						End Site
						{
							OFFSET	1	0	0
						}
					}
				}
			}
		}
	}
}
MOTION
Frames: 12
Frame Time: 0.02
2859.52 692.781 -1700.62 -4.10086 84.2845 4.63446 0.500342 0.244969 -1.50578 0.501539 0.340279 -1.48715 0.492858 0.633484 -1.38786 0.490401 0.406373 -1.47047 -11.6125 17.055 1.14112 -12.1736 31.6024 6.05349 -0.0 0.0 -0.0 0.177837 24.9674 3.11291 -32.9294 -13.4579 70.1809 0.889679 -23.7838 0.187357 -19.7427 -1.09684 2.2612 -2.95477 19.1191 -10.023 -0.0 0.0 -0.0 12.8032 18.468 -25.8878 18.9679 4.58719 -64.0852 1.48006 36.2457 -0.484434 -8.2686 0.363636 -0.991653 -0.75316 13.6818 10.9432 0.0 0.0 0.0 17.4351 4.07394 -9.14476 -53.6053 -1.55045 7.78437 -23.8093 9.66469 3.58186 -21.8567 0.0 0.0 -0.0 0.0 -0.0 7.24432 14.4762 -7.2762 -13.5467 -0.316692 -2.04997 37.6247 -5.45336 4.6462 -6.14978 0.0 0.0 0.0 0.0 0.0 
2854.7 695.016 -1702.96 -14.4947 85.3372 15.4706 0.52092 0.231945 -1.4998 0.522112 0.3269 -1.482 0.513812 0.618831 -1.38575 0.511347 0.392237 -1.46607 -10.2523 18.0117 0.0596903 -10.7234 33.9508 4.88331 -0.0 0.0 -0.0 0.273095 24.9286 3.23511 -31.7905 -12.0123 70.4816 0.775379 -21.0117 0.143792 -21.2183 -1.20921 2.41317 -3.01276 18.3541 -10.7989 -0.0 0.0 -0.0 12.7086 18.8413 -25.6457 21.1445 4.75281 -63.2532 1.59885 38.3771 -0.55645 -9.30828 0.419397 -1.11238 -0.236609 14.4081 7.73433 0.0 0.0 0.0 20.7747 9.86824 -9.64849 -44.2348 -0.757928 6.58069 -23.2734 0.914152 3.53289 -26.7317 0.0 0.0 -0.0 0.0 -0.0 5.11342 15.2642 -8.14884 -6.69945 -0.217298 -1.00462 38.2904 -4.35864 4.70718 -5.21643 0.0 0.0 0.0 0.0 0.0 
2838.47 699.961 -1702.07 -9.37924 84.9582 10.3286 0.497775 0.146723 -1.45507 0.498922 0.239005 -1.44279 0.493114 0.525303 -1.36487 0.490642 0.303178 -1.43069 -10.9524 15.4283 -0.410396 -11.3602 29.4428 3.86871 -0.0 0.0 -0.0 0.724779 24.877 3.82922 -33.2066 -9.80566 70.6842 0.762585 -20.6946 0.139238 -21.885 -1.26125 2.48088 -2.85725 21.2392 -8.27815 -0.0 0.0 -0.0 12.8069 18.9562 -25.8665 20.7133 6.05896 -63.9773 1.72451 40.5028 -0.636296 -10.2041 0.4692 -1.21559 -0.591699 8.92368 7.80838 0.0 0.0 0.0 23.6253 13.9814 -11.4096 -42.0924 -0.605221 6.28868 -22.4421 -2.75099 3.44372 -32.2376 0.0 0.0 -0.0 0.0 -0.0 2.38097 14.925 -8.14086 -3.84702 -0.139167 -0.573887 34.5289 -8.7552 4.3589 -7.3854 0.0 0.0 0.0 0.0 0.0 
2824.16 698.451 -1704.33 -15.3651 85.6344 16.4489 0.495019 0.124929 -1.4247 0.496123 0.215324 -1.41386 0.491024 0.496309 -1.3413 0.488622 0.278269 -1.40284 -10.9621 15.3891 -2.81917 -11.3901 30.9341 1.55027 -0.0 0.0 -0.0 0.580676 25.0664 3.65511 -32.6878 -9.0455 71.2726 0.738833 -20.1024 0.130959 -22.6812 -1.32444 2.56095 -2.76242 21.766 -7.43253 -0.0 0.0 -0.0 12.9368 18.9948 -26.1663 21.1767 6.98282 -63.1256 1.9477 43.9699 -0.78639 -11.185 0.525576 -1.3277 -0.56952 7.15143 6.89512 0.0 0.0 0.0 26.0841 14.5904 -11.5894 -40.3242 -0.487523 6.04361 -22.5545 -5.47756 3.49854 -36.3398 0.0 0.0 -0.0 0.0 -0.0 0.441841 14.6775 -8.69844 1.50842 0.0650481 0.222322 35.3741 -13.3304 4.47574 -8.2175 0.0 0.0 0.0 0.0 0.0 
2804.16 696.859 -1705.78 -5.94665 86.4187 6.83702 0.520242 0.120023 -1.35307 0.521237 0.205871 -1.3427 0.516601 0.472106 -1.27372 0.514434 0.26504 -1.33228 -14.0406 13.7541 -2.04716 -14.6597 27.4805 2.61758 -0.0 0.0 -0.0 0.312669 24.5903 3.25416 -33.1137 -8.22168 71.4989 0.735905 -20.0291 0.129954 -23.0631 -1.35515 2.59905 -2.47515 23.4493 -4.87158 -0.0 0.0 -0.0 12.8444 19.1144 -25.9436 20.9937 7.46206 -62.6924 2.06918 45.7022 -0.872053 -11.9969 0.573689 -1.41976 -0.719192 3.64931 6.39609 0.0 0.0 0.0 25.7461 16.4907 -12.6279 -38.0889 -0.349684 5.72888 -21.991 -8.24914 3.45729 -38.9083 0.0 0.0 -0.0 0.0 -0.0 -1.27812 17.1515 -7.64626 -3.88213 -0.140259 -0.579164 38.0552 -14.3868 4.74575 -6.45531 0.0 0.0 0.0 0.0 0.0 
2790.81 693.603 -1708.15 4.6323 86.5545 -4.00713 0.565167 0.0966643 -1.25465 0.566025 0.176299 -1.24596 0.562354 0.422692 -1.18526 0.560467 0.230213 -1.23713 -14.9136 13.0255 -1.23544 -15.5206 25.636 3.33052 -0.0 0.0 -0.0 0.670004 24.1165 3.68938 -33.6879 -7.18533 71.1475 0.679781 -18.6107 0.111385 -22.6776 -1.32416 2.56059 -1.96287 24.8149 -1.2705 -0.0 0.0 -0.0 12.8602 18.9569 -25.9904 21.249 7.7569 -62.8953 2.18943 47.3172 -0.959299 -13.4822 0.665083 -1.58641 -1.1645 -5.88426 5.16622 0.0 0.0 0.0 24.6927 20.01 -13.5966 -30.9439 0.00675783 4.69148 -22.2395 -10.1051 3.53305 -40.2237 0.0 0.0 -0.0 0.0 -0.0 -0.569614 19.4314 -8.23344 -9.8274 -0.278208 -1.48069 41.1938 -13.4212 5.01556 -8.31487 0.0 0.0 0.0 0.0 0.0 
2775.17 687.043 -1712.99 19.1033 84.3563 -18.0612 0.44997 0.275868 -1.26362 0.450788 0.355711 -1.24351 0.443136 0.600383 -1.14561 0.441541 0.411936 -1.22604 -17.4235 12.319 -0.865255 -18.1361 24.1425 3.99417 -0.0 0.0 -0.0 0.220168 23.569 3.02648 -33.4577 -6.93635 72.9617 0.619354 -17.0567 0.0928771 -23.0658 -1.35537 2.59933 -1.75431 27.7425 1.27544 -0.0 0.0 -0.0 13.1351 19.8478 -26.5714 22.1344 6.94336 -63.0563 2.2432 48.009 -0.999049 -14.8955 0.75604 -1.74275 -1.26183 -9.47223 4.18228 0.0 0.0 0.0 24.3222 20.9929 -13.0895 -14.6472 0.320986 2.21877 -22.266 -11.7848 3.57442 -40.2002 0.0 0.0 -0.0 0.0 -0.0 -1.93723 18.8211 -9.55472 -11.911 -0.30432 -1.79931 41.0365 -13.0723 4.99746 -13.3792 0.0 0.0 0.0 0.0 0.0 
2764.01 685.896 -1711.8 14.4402 83.4397 -13.2944 0.436356 0.349616 -1.29795 0.437189 0.431493 -1.27307 0.427626 0.680916 -1.159 0.426086 0.489343 -1.25198 -18.3947 12.6694 -0.728457 -19.2218 24.7592 4.50524 -0.0 0.0 -0.0 0.759738 23.8015 3.78334 -33.5191 -6.67211 73.5417 0.60168 -16.5971 0.0877606 -22.6938 -1.32546 2.56222 -1.49136 28.3402 2.97473 -0.0 0.0 -0.0 12.9939 19.4339 -26.2704 21.6401 7.82936 -63.9593 2.42027 50.1617 -1.13289 -16.796 0.884408 -1.94941 -1.31768 -11.8819 3.44639 0.0 0.0 0.0 23.5612 21.5075 -12.0003 -6.4982 0.21249 0.974112 -18.0735 -14.1345 2.94626 -40.1952 0.0 0.0 -0.0 0.0 -0.0 -2.2984 22.9425 -9.88637 -11.5456 -0.300579 -1.74337 41.1161 -14.5774 5.02504 -14.3914 0.0 0.0 0.0 0.0 0.0 
2745.28 679.0 -1715.09 23.4557 83.1277 -22.1213 0.0781674 0.179159 -1.16891 0.0788919 0.253171 -1.15514 0.0739455 0.488983 -1.07674 0.0724642 0.312808 -1.14044 -17.4605 12.3907 -2.01752 -18.2185 24.9098 2.97126 -0.0 0.0 -0.0 0.754705 23.644 3.76285 -33.6234 -6.94575 73.4336 0.597929 -16.4993 0.0866924 -23.0135 -1.35115 2.59412 -0.965549 28.7865 6.00801 -0.0 0.0 -0.0 13.1601 20.0679 -26.614 22.2144 7.94503 -64.5752 2.47252 50.7621 -1.17318 -19.6763 1.09188 -2.25429 -1.51377 -13.3391 4.0156 0.0 0.0 0.0 23.848 21.8619 -12.5891 2.61574 -0.11652 -0.384421 -6.42114 -15.7417 1.0452 -38.351 0.0 0.0 -0.0 0.0 -0.0 -2.58758 21.1765 -10.2709 -17.815 -0.315247 -2.7047 41.5375 -12.7087 5.0361 -17.8979 0.0 0.0 0.0 0.0 0.0 
2730.93 669.558 -1714.01 23.7299 82.3083 -22.3575 0.0808987 0.100431 -1.12985 0.0815925 0.172118 -1.12117 0.0784205 0.402522 -1.06049 0.0769247 0.229997 -1.11074 -19.0577 13.3135 -0.378455 -20.0205 25.8245 5.28867 -0.0 0.0 -0.0 0.525416 24.1859 3.50071 -33.8685 -7.1114 73.6116 0.67397 -18.4624 0.109537 -22.9676 -1.34745 2.58955 -0.48786 29.0735 8.70786 -0.0 0.0 -0.0 13.1743 20.0117 -26.6513 21.991 7.85318 -65.2151 2.61849 52.3611 -1.28752 -22.3095 1.29481 -2.52369 -1.78643 -15.8159 4.55027 0.0 0.0 0.0 23.4433 21.919 -12.6056 5.85505 -0.284996 -0.852642 -3.73589 -18.5552 0.61921 -36.5762 0.0 0.0 -0.0 0.0 -0.0 -2.79282 21.9276 -10.5042 -21.0182 -0.282146 -3.19501 42.6847 -8.43179 5.09332 -17.7763 0.0 0.0 0.0 0.0 0.0 
2711.26 661.748 -1710.6 24.7408 81.1804 -23.2948 -0.0221196 0.00680219 -1.06799 -0.0214879 0.0747438 -1.0654 -0.0226343 0.297437 -1.02577 -0.024079 0.131713 -1.05986 -18.8367 14.0708 1.07018 -19.8306 26.5218 6.90695 -0.0 0.0 -0.0 0.704751 24.8897 3.80373 -33.5863 -7.45026 73.9242 0.670104 -18.3636 0.108316 -23.3047 -1.3747 2.62305 -0.129089 29.0952 10.67 -0.0 0.0 -0.0 13.279 20.2811 -26.8763 20.5499 7.98719 -66.119 2.74301 53.6395 -1.38698 -24.0621 1.43667 -2.69774 -1.66314 -15.1696 4.09355 0.0 0.0 0.0 24.7452 21.6341 -13.0082 4.06229 -0.188474 -0.594661 2.89815 -20.634 -0.480988 -33.1019 0.0 0.0 -0.0 0.0 -0.0 -3.65432 22.8197 -10.1894 -23.6399 -0.234694 -3.59447 41.947 -7.52232 5.02808 -19.954 0.0 0.0 0.0 0.0 0.0 
2697.53 650.405 -1712.08 20.4181 79.8012 -18.7566 -0.00303816 0.0549638 -1.06343 -0.00241721 0.122517 -1.05778 -0.00446978 0.342221 -1.00837 -0.00584453 0.178683 -1.04975 -19.0508 14.9115 0.277012 -20.2517 28.5567 6.65517 -0.0 0.0 -0.0 0.60063 24.4105 3.62239 -33.7697 -7.55573 74.7201 0.695476 -19.0098 0.116445 -22.9304 -1.34445 2.58584 0.145343 28.8724 12.1006 -0.0 0.0 -0.0 13.0782 20.9914 -26.353 20.4012 8.36233 -67.3296 2.92445 55.3726 -1.53472 -25.8517 1.58698 -2.87096 -1.668 -15.2357 4.09256 0.0 0.0 0.0 26.9533 21.0094 -14.6588 4.1894 -0.195051 -0.613048 0.546938 -23.3675 -0.0940109 -27.4947 0.0 0.0 -0.0 0.0 -0.0 -4.34902 23.3469 -9.69523 -24.4019 -0.217476 -3.71014 41.3744 -2.72321 4.97787 -20.1876 0.0 0.0 0.0 0.0 0.0 
